# xmcd
#
# Track frame offsets: 
#        150
#        22365
#        43654
#        65561
#        87293
#        106929
#        126327
#        141067
#        165136
#
# Disc length: 2583 seconds
#
# Revision: 0
# Processed by: cddbd v1.5.2PL0 Copyright (c) Steve Scherf et al.
# Submitted via: ExactAudioCopyFreeDBPlugin 1.0
#
DISCID=770a1509
DTITLE=Howard Glazer - Stepchild Of The Blues
DYEAR=2013
DGENRE=Blues
TTITLE0=Don't Love You No More
TTITLE1=Shakin'
TTITLE2=Gas Pump Blues
TTITLE3=Telephone Blues
TTITLE4=Honey and Spice
TTITLE5=Somewhere
TTITLE6=Cried All My Tears
TTITLE7=Liquor Store Legend
TTITLE8=Hurtful Feelings
EXTD=
EXTT0=
EXTT1=
EXTT2=
EXTT3=
EXTT4=
EXTT5=
EXTT6=
EXTT7=
EXTT8=
PLAYORDER=
